<svg width="24" height="24" viewBox="0 0 24 24" fill="none" xmlns="http://www.w3.org/2000/svg">
<rect width="24" height="24" fill="white"/>
<path d="M2.00006 3C5.29102 5.10453 7.2577 5.25653 11.0001 3.5C15.076 5.44506 16.6122 3.93677 20.0001 3C19.5589 13.7915 17.9702 17.0674 11.0001 22C4.30457 17.2692 3.48131 13.7135 2.00006 3Z" fill="#0F2B69" stroke="#0F2B69" stroke-width="0.2"/>
<rect x="1" y="8" width="20" height="9" rx="1" fill="#0492FF"/>
<circle cx="21" cy="15" r="3" fill="#0F2B69"/>
<path d="M4.2358 13.4091L4.29261 12.7841L3.77415 13.1463L3.49006 12.6491L4.05824 12.3864L3.49006 12.1236L3.77415 11.6264L4.29261 11.9886L4.2358 11.3636H4.80398L4.74716 11.9886L5.26562 11.6264L5.54972 12.1236L4.98153 12.3864L5.54972 12.6491L5.26562 13.1463L4.74716 12.7841L4.80398 13.4091H4.2358ZM7.27779 13.4091L7.33461 12.7841L6.81614 13.1463L6.53205 12.6491L7.10023 12.3864L6.53205 12.1236L6.81614 11.6264L7.33461 11.9886L7.27779 11.3636H7.84597L7.78915 11.9886L8.30762 11.6264L8.59171 12.1236L8.02353 12.3864L8.59171 12.6491L8.30762 13.1463L7.78915 12.7841L7.84597 13.4091H7.27779ZM10.3198 13.4091L10.3766 12.7841L9.85813 13.1463L9.57404 12.6491L10.1422 12.3864L9.57404 12.1236L9.85813 11.6264L10.3766 11.9886L10.3198 11.3636H10.888L10.8311 11.9886L11.3496 11.6264L11.6337 12.1236L11.0655 12.3864L11.6337 12.6491L11.3496 13.1463L10.8311 12.7841L10.888 13.4091H10.3198ZM13.3618 13.4091L13.4186 12.7841L12.9001 13.1463L12.616 12.6491L13.1842 12.3864L12.616 12.1236L12.9001 11.6264L13.4186 11.9886L13.3618 11.3636H13.93L13.8731 11.9886L14.3916 11.6264L14.6757 12.1236L14.1075 12.3864L14.6757 12.6491L14.3916 13.1463L13.8731 12.7841L13.93 13.4091H13.3618ZM16.4038 13.4091L16.4606 12.7841L15.9421 13.1463L15.658 12.6491L16.2262 12.3864L15.658 12.1236L15.9421 11.6264L16.4606 11.9886L16.4038 11.3636H16.9719L16.9151 11.9886L17.4336 11.6264L17.7177 12.1236L17.1495 12.3864L17.7177 12.6491L17.4336 13.1463L16.9151 12.7841L16.9719 13.4091H16.4038Z" fill="#ECEFF7"/>
<path d="M20.3536 14.6464C20.1583 14.4512 19.8417 14.4512 19.6464 14.6464C19.4512 14.8417 19.4512 15.1583 19.6464 15.3536L20 15L20.3536 14.6464ZM20.396 16.1031L20.7495 16.4566L21.4566 15.7495L21.1031 15.396L20.7495 15.7495L20.396 16.1031ZM20 15L19.6464 15.3536L20.396 16.1031L20.7495 15.7495L21.1031 15.396L20.3536 14.6464L20 15Z" fill="#ECEFF7"/>
<path d="M20.9477 14.8569L20.586 15.2021L21.2765 15.9255L21.6381 15.5803L21.2929 15.2186L20.9477 14.8569ZM22.9148 14.3617C23.1145 14.171 23.1219 13.8545 22.9312 13.6548C22.7406 13.455 22.4241 13.4477 22.2243 13.6383L22.5695 14L22.9148 14.3617ZM21.2929 15.2186L21.6381 15.5803L22.9148 14.3617L22.5695 14L22.2243 13.6383L20.9477 14.8569L21.2929 15.2186Z" fill="#ECEFF7"/>
</svg>
