<svg width="24" height="24" viewBox="0 0 24 24" fill="none" xmlns="http://www.w3.org/2000/svg">
<path d="M3 0H17C19.2091 0 21 1.79086 21 4V24H3V0Z" fill="#0492FF"/>
<line x1="5" y1="7.5" x2="18" y2="7.5" stroke="#ECEFF7" stroke-opacity="0.7"/>
<line x1="5" y1="10.5" x2="18" y2="10.5" stroke="#ECEFF7" stroke-opacity="0.7"/>
<line x1="5" y1="13.5" x2="16" y2="13.5" stroke="#ECEFF7" stroke-opacity="0.7"/>
<mask id="path-5-outside-1_2012_2" maskUnits="userSpaceOnUse" x="4" y="17" width="11" height="7" fill="black">
<rect fill="white" x="4" y="17" width="11" height="7"/>
<path d="M7.02415 18.3636V22H6.03693V19.2727H6.01562L5.22017 19.7486V18.9105L6.11506 18.3636H7.02415ZM7.77077 22V21.2898L9.12731 20.1676C9.21727 20.093 9.29421 20.0232 9.35813 19.9581C9.42324 19.8918 9.47295 19.8237 9.50728 19.7539C9.54279 19.6841 9.56055 19.6065 9.56055 19.5213C9.56055 19.4278 9.54042 19.3479 9.50018 19.2816C9.46112 19.2153 9.40666 19.1644 9.33683 19.1289C9.26699 19.0922 9.18649 19.0739 9.09535 19.0739C9.0042 19.0739 8.92371 19.0922 8.85387 19.1289C8.78522 19.1656 8.73195 19.2195 8.69407 19.2905C8.65619 19.3615 8.63725 19.4479 8.63725 19.5497H7.69975C7.69975 19.294 7.75716 19.0739 7.87198 18.8892C7.9868 18.7045 8.14897 18.5625 8.35849 18.4631C8.568 18.3636 8.81362 18.3139 9.09535 18.3139C9.38654 18.3139 9.63867 18.3607 9.85174 18.4542C10.066 18.5465 10.2311 18.6767 10.3471 18.8448C10.4643 19.0129 10.5229 19.21 10.5229 19.4361C10.5229 19.5758 10.4939 19.7148 10.4359 19.8533C10.3779 19.9906 10.2737 20.1428 10.1234 20.3097C9.97307 20.4766 9.75941 20.6754 9.48242 20.9062L9.14151 21.1903V21.2116H10.562V22H7.77077ZM12.4237 22.0497C12.1372 22.0497 11.8827 22.0006 11.6602 21.9023C11.4388 21.8029 11.2648 21.6662 11.1381 21.4922C11.0115 21.3182 10.9476 21.1181 10.9464 20.892H11.9407C11.9419 20.9619 11.9632 21.0246 12.0046 21.0803C12.0472 21.1347 12.1052 21.1773 12.1786 21.2081C12.252 21.2389 12.3361 21.2543 12.4308 21.2543C12.5219 21.2543 12.6024 21.2383 12.6722 21.2063C12.7421 21.1732 12.7965 21.1276 12.8356 21.0696C12.8746 21.0116 12.8936 20.9453 12.8924 20.8707C12.8936 20.7973 12.8711 20.7322 12.8249 20.6754C12.7799 20.6186 12.7166 20.5742 12.6349 20.5423C12.5533 20.5103 12.4592 20.4943 12.3526 20.4943H11.9833V19.8125H12.3526C12.4509 19.8125 12.5373 19.7965 12.6119 19.7646C12.6876 19.7326 12.7462 19.6882 12.7876 19.6314C12.8303 19.5746 12.851 19.5095 12.8498 19.4361C12.851 19.3651 12.8338 19.3023 12.7983 19.2479C12.7628 19.1934 12.7131 19.1508 12.6491 19.12C12.5864 19.0893 12.5136 19.0739 12.4308 19.0739C12.3408 19.0739 12.2603 19.0898 12.1893 19.1218C12.1194 19.1538 12.0644 19.1982 12.0241 19.255C11.9839 19.3118 11.9632 19.3769 11.962 19.4503H11.0174C11.0186 19.2277 11.0795 19.0312 11.2003 18.8608C11.3222 18.6903 11.4891 18.5566 11.701 18.4595C11.9129 18.3625 12.1561 18.3139 12.4308 18.3139C12.6995 18.3139 12.9368 18.3595 13.1428 18.4506C13.3499 18.5418 13.5115 18.6673 13.6275 18.8271C13.7447 18.9857 13.8027 19.1674 13.8015 19.3722C13.8039 19.5758 13.734 19.7427 13.592 19.8729C13.4511 20.0031 13.2724 20.08 13.0558 20.1037V20.1321C13.3493 20.1641 13.5701 20.254 13.718 20.402C13.866 20.5488 13.9388 20.7334 13.9364 20.956C13.9376 21.169 13.8737 21.3578 13.7447 21.5224C13.6168 21.6869 13.4387 21.8159 13.2102 21.9094C12.983 22.003 12.7208 22.0497 12.4237 22.0497Z"/>
</mask>
<path d="M7.02415 18.3636V22H6.03693V19.2727H6.01562L5.22017 19.7486V18.9105L6.11506 18.3636H7.02415ZM7.77077 22V21.2898L9.12731 20.1676C9.21727 20.093 9.29421 20.0232 9.35813 19.9581C9.42324 19.8918 9.47295 19.8237 9.50728 19.7539C9.54279 19.6841 9.56055 19.6065 9.56055 19.5213C9.56055 19.4278 9.54042 19.3479 9.50018 19.2816C9.46112 19.2153 9.40666 19.1644 9.33683 19.1289C9.26699 19.0922 9.18649 19.0739 9.09535 19.0739C9.0042 19.0739 8.92371 19.0922 8.85387 19.1289C8.78522 19.1656 8.73195 19.2195 8.69407 19.2905C8.65619 19.3615 8.63725 19.4479 8.63725 19.5497H7.69975C7.69975 19.294 7.75716 19.0739 7.87198 18.8892C7.9868 18.7045 8.14897 18.5625 8.35849 18.4631C8.568 18.3636 8.81362 18.3139 9.09535 18.3139C9.38654 18.3139 9.63867 18.3607 9.85174 18.4542C10.066 18.5465 10.2311 18.6767 10.3471 18.8448C10.4643 19.0129 10.5229 19.21 10.5229 19.4361C10.5229 19.5758 10.4939 19.7148 10.4359 19.8533C10.3779 19.9906 10.2737 20.1428 10.1234 20.3097C9.97307 20.4766 9.75941 20.6754 9.48242 20.9062L9.14151 21.1903V21.2116H10.562V22H7.77077ZM12.4237 22.0497C12.1372 22.0497 11.8827 22.0006 11.6602 21.9023C11.4388 21.8029 11.2648 21.6662 11.1381 21.4922C11.0115 21.3182 10.9476 21.1181 10.9464 20.892H11.9407C11.9419 20.9619 11.9632 21.0246 12.0046 21.0803C12.0472 21.1347 12.1052 21.1773 12.1786 21.2081C12.252 21.2389 12.3361 21.2543 12.4308 21.2543C12.5219 21.2543 12.6024 21.2383 12.6722 21.2063C12.7421 21.1732 12.7965 21.1276 12.8356 21.0696C12.8746 21.0116 12.8936 20.9453 12.8924 20.8707C12.8936 20.7973 12.8711 20.7322 12.8249 20.6754C12.7799 20.6186 12.7166 20.5742 12.6349 20.5423C12.5533 20.5103 12.4592 20.4943 12.3526 20.4943H11.9833V19.8125H12.3526C12.4509 19.8125 12.5373 19.7965 12.6119 19.7646C12.6876 19.7326 12.7462 19.6882 12.7876 19.6314C12.8303 19.5746 12.851 19.5095 12.8498 19.4361C12.851 19.3651 12.8338 19.3023 12.7983 19.2479C12.7628 19.1934 12.7131 19.1508 12.6491 19.12C12.5864 19.0893 12.5136 19.0739 12.4308 19.0739C12.3408 19.0739 12.2603 19.0898 12.1893 19.1218C12.1194 19.1538 12.0644 19.1982 12.0241 19.255C11.9839 19.3118 11.9632 19.3769 11.962 19.4503H11.0174C11.0186 19.2277 11.0795 19.0312 11.2003 18.8608C11.3222 18.6903 11.4891 18.5566 11.701 18.4595C11.9129 18.3625 12.1561 18.3139 12.4308 18.3139C12.6995 18.3139 12.9368 18.3595 13.1428 18.4506C13.3499 18.5418 13.5115 18.6673 13.6275 18.8271C13.7447 18.9857 13.8027 19.1674 13.8015 19.3722C13.8039 19.5758 13.734 19.7427 13.592 19.8729C13.4511 20.0031 13.2724 20.08 13.0558 20.1037V20.1321C13.3493 20.1641 13.5701 20.254 13.718 20.402C13.866 20.5488 13.9388 20.7334 13.9364 20.956C13.9376 21.169 13.8737 21.3578 13.7447 21.5224C13.6168 21.6869 13.4387 21.8159 13.2102 21.9094C12.983 22.003 12.7208 22.0497 12.4237 22.0497Z" fill="#93C5FD"/>
<path d="M7.02415 18.3636H8.02415V17.3636H7.02415V18.3636ZM7.02415 22V23H8.02415V22H7.02415ZM6.03693 22H5.03693V23H6.03693V22ZM6.03693 19.2727H7.03693V18.2727H6.03693V19.2727ZM6.01562 19.2727V18.2727H5.73935L5.50226 18.4146L6.01562 19.2727ZM5.22017 19.7486H4.22017V21.5121L5.73354 20.6067L5.22017 19.7486ZM5.22017 18.9105L4.69872 18.0572L4.22017 18.3497V18.9105H5.22017ZM6.11506 18.3636V17.3636H5.83369L5.59361 17.5104L6.11506 18.3636ZM7.02415 18.3636H6.02415V22H7.02415H8.02415V18.3636H7.02415ZM7.02415 22V21H6.03693V22V23H7.02415V22ZM6.03693 22H7.03693V19.2727H6.03693H5.03693V22H6.03693ZM6.03693 19.2727V18.2727H6.01562V19.2727V20.2727H6.03693V19.2727ZM6.01562 19.2727L5.50226 18.4146L4.7068 18.8904L5.22017 19.7486L5.73354 20.6067L6.52899 20.1309L6.01562 19.2727ZM5.22017 19.7486H6.22017V18.9105H5.22017H4.22017V19.7486H5.22017ZM5.22017 18.9105L5.74162 19.7638L6.63651 19.2169L6.11506 18.3636L5.59361 17.5104L4.69872 18.0572L5.22017 18.9105ZM6.11506 18.3636V19.3636H7.02415V18.3636V17.3636H6.11506V18.3636ZM7.77077 22H6.77077V23H7.77077V22ZM7.77077 21.2898L7.13337 20.5192L6.77077 20.8192V21.2898H7.77077ZM9.12731 20.1676L9.76471 20.9381L9.7655 20.9375L9.12731 20.1676ZM9.35813 19.9581L8.64468 19.2574L8.64457 19.2575L9.35813 19.9581ZM9.50728 19.7539L8.61581 19.3006L8.60983 19.3128L9.50728 19.7539ZM9.50018 19.2816L8.63856 19.7893L8.64539 19.8006L9.50018 19.2816ZM9.33683 19.1289L8.87165 20.0142L8.88358 20.0203L9.33683 19.1289ZM8.85387 19.1289L8.38873 18.2436L8.38249 18.247L8.85387 19.1289ZM8.69407 19.2905L7.81172 18.8199L7.81172 18.8199L8.69407 19.2905ZM8.63725 19.5497V20.5497H9.63725V19.5497H8.63725ZM7.69975 19.5497H6.69975V20.5497H7.69975V19.5497ZM7.87198 18.8892L7.02276 18.3612L7.02276 18.3612L7.87198 18.8892ZM8.35849 18.4631L8.78723 19.3665L8.78723 19.3665L8.35849 18.4631ZM9.85174 18.4542L9.44984 19.3699L9.45598 19.3725L9.85174 18.4542ZM10.3471 18.8448L9.52409 19.4128L9.52681 19.4167L10.3471 18.8448ZM10.4359 19.8533L11.3571 20.2425L11.3583 20.2396L10.4359 19.8533ZM10.1234 20.3097L10.8664 20.9789L10.8664 20.9789L10.1234 20.3097ZM9.48242 20.9062L10.1226 21.6745L10.1226 21.6745L9.48242 20.9062ZM9.14151 21.1903L8.50133 20.4221L8.14151 20.722V21.1903H9.14151ZM9.14151 21.2116H8.14151V22.2116H9.14151V21.2116ZM10.562 21.2116H11.562V20.2116H10.562V21.2116ZM10.562 22V23H11.562V22H10.562ZM7.77077 22H8.77077V21.2898H7.77077H6.77077V22H7.77077ZM7.77077 21.2898L8.40818 22.0603L9.76471 20.9381L9.12731 20.1676L8.48991 19.3971L7.13337 20.5192L7.77077 21.2898ZM9.12731 20.1676L9.7655 20.9375C9.87487 20.8468 9.97831 20.7538 10.0717 20.6587L9.35813 19.9581L8.64457 19.2575C8.61011 19.2926 8.55967 19.3392 8.48912 19.3977L9.12731 20.1676ZM9.35813 19.9581L10.0716 20.6588C10.1974 20.5307 10.3152 20.3772 10.4047 20.195L9.50728 19.7539L8.60983 19.3128C8.6307 19.2703 8.64907 19.2529 8.64468 19.2574L9.35813 19.9581ZM9.50728 19.7539L10.3987 20.2072C10.5117 19.9848 10.5605 19.75 10.5605 19.5213H9.56055H8.56055C8.56055 19.4631 8.57388 19.3833 8.61589 19.3007L9.50728 19.7539ZM9.56055 19.5213H10.5605C10.5605 19.2826 10.5081 19.0148 10.355 18.7626L9.50018 19.2816L8.64539 19.8006C8.57277 19.681 8.56055 19.573 8.56055 19.5213H9.56055ZM9.50018 19.2816L10.3617 18.7739C10.224 18.5403 10.0265 18.3577 9.79007 18.2375L9.33683 19.1289L8.88358 20.0203C8.78683 19.9711 8.69819 19.8904 8.63864 19.7893L9.50018 19.2816ZM9.33683 19.1289L9.80195 18.2437C9.56783 18.1206 9.32325 18.0739 9.09535 18.0739V19.0739V20.0739C9.04974 20.0739 8.96614 20.0638 8.8717 20.0141L9.33683 19.1289ZM9.09535 19.0739V18.0739C8.86744 18.0739 8.62287 18.1206 8.38874 18.2437L8.85387 19.1289L9.319 20.0141C9.22455 20.0638 9.14096 20.0739 9.09535 20.0739V19.0739ZM8.85387 19.1289L8.38249 18.247C8.13294 18.3804 7.93946 18.5804 7.81172 18.8199L8.69407 19.2905L9.57642 19.7611C9.52443 19.8585 9.43749 19.9508 9.32525 20.0108L8.85387 19.1289ZM8.69407 19.2905L7.81172 18.8199C7.67881 19.0691 7.63725 19.3263 7.63725 19.5497H8.63725H9.63725C9.63725 19.5696 9.63357 19.6539 9.57642 19.7611L8.69407 19.2905ZM8.63725 19.5497V18.5497H7.69975V19.5497V20.5497H8.63725V19.5497ZM7.69975 19.5497H8.69975C8.69975 19.4474 8.72114 19.4173 8.7212 19.4172L7.87198 18.8892L7.02276 18.3612C6.79318 18.7304 6.69975 19.1407 6.69975 19.5497H7.69975ZM7.87198 18.8892L8.7212 19.4172C8.72793 19.4064 8.7389 19.3894 8.78723 19.3665L8.35849 18.4631L7.92974 17.5596C7.55904 17.7356 7.24567 18.0027 7.02276 18.3612L7.87198 18.8892ZM8.35849 18.4631L8.78723 19.3665C8.83711 19.3428 8.93064 19.3139 9.09535 19.3139V18.3139V17.3139C8.69661 17.3139 8.2989 17.3844 7.92974 17.5596L8.35849 18.4631ZM9.09535 18.3139V19.3139C9.28188 19.3139 9.39106 19.3441 9.44985 19.3699L9.85174 18.4542L10.2536 17.5385C9.88628 17.3773 9.4912 17.3139 9.09535 17.3139V18.3139ZM9.85174 18.4542L9.45598 19.3725C9.49178 19.388 9.50989 19.4007 9.51709 19.4063C9.5208 19.4093 9.52259 19.4111 9.52318 19.4117C9.52374 19.4123 9.52394 19.4126 9.5241 19.4128L10.3471 18.8448L11.1701 18.2768C10.9329 17.9331 10.6091 17.6917 10.2475 17.5358L9.85174 18.4542ZM10.3471 18.8448L9.52681 19.4167C9.52589 19.4154 9.52444 19.4131 9.52298 19.41C9.52153 19.407 9.52073 19.4047 9.52042 19.4037C9.52014 19.4027 9.5207 19.4043 9.52137 19.4091C9.52205 19.414 9.5229 19.4228 9.5229 19.4361H10.5229H11.5229C11.5229 19.0276 11.4136 18.626 11.1674 18.2729L10.3471 18.8448ZM10.5229 19.4361H9.5229C9.5229 19.4362 9.52295 19.4375 9.52221 19.441C9.52143 19.4448 9.5193 19.4533 9.51353 19.467L10.4359 19.8533L11.3583 20.2396C11.4636 19.9881 11.5229 19.7181 11.5229 19.4361H10.5229ZM10.4359 19.8533L9.51472 19.4642C9.51705 19.4587 9.51194 19.4722 9.4892 19.5054C9.46683 19.538 9.43205 19.583 9.38037 19.6404L10.1234 20.3097L10.8664 20.9789C11.0574 20.7668 11.2396 20.5205 11.3571 20.2425L10.4359 19.8533ZM10.1234 20.3097L9.38037 19.6404C9.27506 19.7573 9.10168 19.9218 8.84224 20.138L9.48242 20.9062L10.1226 21.6745C10.4171 21.429 10.6711 21.1958 10.8664 20.9789L10.1234 20.3097ZM9.48242 20.9062L8.84224 20.138L8.50133 20.4221L9.14151 21.1903L9.7817 21.9586L10.1226 21.6745L9.48242 20.9062ZM9.14151 21.1903H8.14151V21.2116H9.14151H10.1415V21.1903H9.14151ZM9.14151 21.2116V22.2116H10.562V21.2116V20.2116H9.14151V21.2116ZM10.562 21.2116H9.56197V22H10.562H11.562V21.2116H10.562ZM10.562 22V21H7.77077V22V23H10.562V22ZM11.6602 21.9023L11.2504 22.8146L11.2563 22.8172L11.6602 21.9023ZM11.1381 21.4922L11.9466 20.9037L11.9466 20.9037L11.1381 21.4922ZM10.9464 20.892V19.892H9.94113L9.94639 20.8973L10.9464 20.892ZM11.9407 20.892L12.9406 20.8751L12.9239 19.892H11.9407V20.892ZM12.0046 21.0803L11.2026 21.6775L11.2097 21.6871L11.2171 21.6966L12.0046 21.0803ZM12.1786 21.2081L11.7919 22.1303L11.7919 22.1303L12.1786 21.2081ZM12.6722 21.2063L13.0884 22.1157L13.101 22.1097L12.6722 21.2063ZM12.8356 21.0696L13.665 21.6282L13.665 21.6282L12.8356 21.0696ZM12.8924 20.8707L11.8925 20.8546L11.8923 20.8706L11.8925 20.8866L12.8924 20.8707ZM12.8249 20.6754L12.0408 21.2962L12.0488 21.306L12.8249 20.6754ZM11.9833 20.4943H10.9833V21.4943H11.9833V20.4943ZM11.9833 19.8125V18.8125H10.9833V19.8125H11.9833ZM12.6119 19.7646L12.2232 18.8432L12.2179 18.8454L12.6119 19.7646ZM12.7876 19.6314L11.9876 19.0313L11.9796 19.0422L12.7876 19.6314ZM12.8498 19.4361L11.8499 19.4194L11.8497 19.4358L11.8499 19.4522L12.8498 19.4361ZM12.7983 19.2479L11.9607 19.7941L11.9607 19.7941L12.7983 19.2479ZM12.6491 19.12L12.2087 20.0178L12.2153 20.021L12.6491 19.12ZM12.1893 19.1218L11.7789 18.2099L11.7731 18.2125L12.1893 19.1218ZM12.0241 19.255L12.8402 19.833L12.8402 19.833L12.0241 19.255ZM11.962 19.4503V20.4503H12.946L12.9619 19.4664L11.962 19.4503ZM11.0174 19.4503L10.0174 19.445L10.0121 20.4503H11.0174V19.4503ZM11.2003 18.8608L10.3869 18.279L10.3843 18.2828L11.2003 18.8608ZM11.701 18.4595L12.1175 19.3687L12.1175 19.3687L11.701 18.4595ZM13.1428 18.4506L12.7381 19.3651L12.74 19.366L13.1428 18.4506ZM13.6275 18.8271L12.8182 19.4145L12.8232 19.4213L13.6275 18.8271ZM13.8015 19.3722L12.8015 19.3664L12.8015 19.3751L12.8016 19.3838L13.8015 19.3722ZM13.592 19.8729L12.9162 19.1357L12.9132 19.1385L13.592 19.8729ZM13.0558 20.1037L12.9471 19.1096L12.0558 19.207V20.1037H13.0558ZM13.0558 20.1321H12.0558V21.0291L12.9475 21.1262L13.0558 20.1321ZM13.718 20.402L13.0109 21.1091L13.0138 21.1119L13.718 20.402ZM13.9364 20.956L12.9365 20.9453L12.9364 20.9534L12.9365 20.9615L13.9364 20.956ZM13.7447 21.5224L12.9578 20.9053L12.955 20.9088L13.7447 21.5224ZM13.2102 21.9094L12.8314 20.984L12.8297 20.9847L13.2102 21.9094ZM12.4237 22.0497V21.0497C12.2519 21.0497 12.1388 21.0205 12.064 20.9875L11.6602 21.9023L11.2563 22.8172C11.6266 22.9807 12.0225 23.0497 12.4237 23.0497V22.0497ZM11.6602 21.9023L12.0699 20.9901C11.9867 20.9528 11.9583 20.9197 11.9466 20.9037L11.1381 21.4922L10.3296 22.0807C10.5713 22.4127 10.8909 22.653 11.2504 22.8145L11.6602 21.9023ZM11.1381 21.4922L11.9466 20.9037C11.9452 20.9017 11.9452 20.9015 11.9459 20.9028C11.9466 20.9042 11.9473 20.9059 11.9478 20.9073C11.9482 20.9087 11.948 20.9084 11.9476 20.9057C11.9471 20.903 11.9464 20.8969 11.9464 20.8868L10.9464 20.892L9.94639 20.8973C9.94861 21.3218 10.0731 21.7283 10.3296 22.0807L11.1381 21.4922ZM10.9464 20.892V21.892H11.9407V20.892V19.892H10.9464V20.892ZM11.9407 20.892L10.9408 20.909C10.9455 21.1866 11.0351 21.4527 11.2026 21.6775L12.0046 21.0803L12.8067 20.483C12.8912 20.5966 12.9382 20.7371 12.9406 20.8751L11.9407 20.892ZM12.0046 21.0803L11.2171 21.6966C11.38 21.9047 11.585 22.0435 11.7919 22.1303L12.1786 21.2081L12.5653 20.2859C12.6254 20.3111 12.7145 20.3647 12.7921 20.4639L12.0046 21.0803ZM12.1786 21.2081L11.7919 22.1303C12.0087 22.2212 12.228 22.2543 12.4308 22.2543V21.2543V20.2543C12.4441 20.2543 12.4953 20.2565 12.5653 20.2859L12.1786 21.2081ZM12.4308 21.2543V22.2543C12.639 22.2543 12.8658 22.2175 13.0884 22.1156L12.6722 21.2063L12.2561 20.297C12.339 20.2591 12.4048 20.2543 12.4308 20.2543V21.2543ZM12.6722 21.2063L13.101 22.1097C13.3153 22.008 13.5154 21.8504 13.665 21.6282L12.8356 21.0696L12.0061 20.511C12.0776 20.4049 12.1688 20.3383 12.2435 20.3029L12.6722 21.2063ZM12.8356 21.0696L13.665 21.6282C13.826 21.3891 13.8965 21.1195 13.8923 20.8549L12.8924 20.8707L11.8925 20.8866C11.8907 20.7711 11.9232 20.6341 12.0061 20.511L12.8356 21.0696ZM12.8924 20.8707L13.8923 20.8869C13.8972 20.579 13.796 20.2847 13.601 20.0448L12.8249 20.6754L12.0488 21.306C12.0029 21.2495 11.9605 21.1781 11.9312 21.0934C11.902 21.0087 11.8914 20.9267 11.8925 20.8546L12.8924 20.8707ZM12.8249 20.6754L13.609 20.0547C13.4331 19.8325 13.2113 19.6939 12.9993 19.611L12.6349 20.5423L12.2705 21.4735C12.222 21.4545 12.1268 21.4047 12.0409 21.2961L12.8249 20.6754ZM12.6349 20.5423L12.9993 19.611C12.7796 19.525 12.5578 19.4943 12.3526 19.4943V20.4943V21.4943C12.3605 21.4943 12.327 21.4956 12.2705 21.4735L12.6349 20.5423ZM12.3526 20.4943V19.4943H11.9833V20.4943V21.4943H12.3526V20.4943ZM11.9833 20.4943H12.9833V19.8125H11.9833H10.9833V20.4943H11.9833ZM11.9833 19.8125V20.8125H12.3526V19.8125V18.8125H11.9833V19.8125ZM12.3526 19.8125V20.8125C12.5584 20.8125 12.7834 20.779 13.0058 20.6837L12.6119 19.7646L12.2179 18.8454C12.2912 18.814 12.3434 18.8125 12.3526 18.8125V19.8125ZM12.6119 19.7646L13.0006 20.6859C13.215 20.5955 13.4302 20.4474 13.5956 20.2206L12.7876 19.6314L11.9796 19.0422C12.0622 18.929 12.1603 18.8697 12.2232 18.8432L12.6119 19.7646ZM12.7876 19.6314L13.5876 20.2314C13.7681 19.9908 13.8543 19.7072 13.8497 19.42L12.8498 19.4361L11.8499 19.4522C11.8489 19.3887 11.8574 19.3148 11.8822 19.2367C11.9072 19.1583 11.9444 19.0891 11.9876 19.0314L12.7876 19.6314ZM12.8498 19.4361L13.8496 19.4527C13.8538 19.2014 13.7906 18.9388 13.6359 18.7016L12.7983 19.2479L11.9607 19.7941C11.877 19.6659 11.8481 19.5287 11.8499 19.4194L12.8498 19.4361ZM12.7983 19.2479L13.6359 18.7016C13.4917 18.4805 13.2958 18.3215 13.083 18.219L12.6491 19.12L12.2153 20.021C12.1303 19.9801 12.0339 19.9064 11.9607 19.7941L12.7983 19.2479ZM12.6491 19.12L13.0896 18.2222C12.8666 18.1128 12.6382 18.0739 12.4308 18.0739V19.0739V20.0739C12.3891 20.0739 12.3063 20.0657 12.2087 20.0178L12.6491 19.12ZM12.4308 19.0739V18.0739C12.2211 18.0739 11.9975 18.1115 11.7789 18.2099L12.1893 19.1218L12.5996 20.0337C12.5231 20.0682 12.4604 20.0739 12.4308 20.0739V19.0739ZM12.1893 19.1218L11.7731 18.2125C11.5601 18.31 11.3604 18.4619 11.2081 18.677L12.0241 19.255L12.8402 19.833C12.7684 19.9344 12.6788 19.9975 12.6054 20.0311L12.1893 19.1218ZM12.0241 19.255L11.2081 18.677C11.0449 18.9074 10.9664 19.1708 10.9621 19.4342L11.962 19.4503L12.9619 19.4664C12.96 19.583 12.9229 19.7161 12.8402 19.833L12.0241 19.255ZM11.962 19.4503V18.4503H11.0174V19.4503V20.4503H11.962V19.4503ZM11.0174 19.4503L12.0174 19.4556C12.0174 19.4449 12.0182 19.4382 12.0187 19.435C12.0192 19.4318 12.0195 19.4311 12.0191 19.4323C12.0187 19.4336 12.018 19.4354 12.0171 19.4373C12.0162 19.4391 12.0157 19.4397 12.0163 19.4388L11.2003 18.8608L10.3843 18.2828C10.1369 18.6319 10.0196 19.0313 10.0174 19.445L11.0174 19.4503ZM11.2003 18.8608L12.0136 19.4426C12.023 19.4294 12.046 19.4014 12.1175 19.3687L11.701 18.4595L11.2845 17.5504C10.9322 17.7117 10.6214 17.9513 10.3869 18.279L11.2003 18.8608ZM11.701 18.4595L12.1175 19.3687C12.1774 19.3412 12.2745 19.3139 12.4308 19.3139V18.3139V17.3139C12.0378 17.3139 11.6483 17.3837 11.2845 17.5504L11.701 18.4595ZM12.4308 18.3139V19.3139C12.5865 19.3139 12.6817 19.3402 12.7381 19.3651L13.1428 18.4506L13.5474 17.5362C13.1918 17.3788 12.8124 17.3139 12.4308 17.3139V18.3139ZM13.1428 18.4506L12.74 19.366C12.7764 19.3819 12.7964 19.3955 12.806 19.4029C12.8149 19.4099 12.8176 19.4137 12.8182 19.4145L13.6275 18.8271L14.4367 18.2396C14.2022 17.9166 13.8907 17.6872 13.5455 17.5353L13.1428 18.4506ZM13.6275 18.8271L12.8232 19.4213C12.819 19.4157 12.8116 19.4032 12.8062 19.3864C12.801 19.37 12.8015 19.3614 12.8015 19.3664L13.8015 19.3722L14.8015 19.3779C14.8039 18.9662 14.6824 18.5721 14.4318 18.2328L13.6275 18.8271ZM13.8015 19.3722L12.8016 19.3838C12.8014 19.3662 12.8044 19.3213 12.8284 19.264C12.8529 19.2054 12.8876 19.1619 12.9163 19.1357L13.592 19.8729L14.2677 20.61C14.6324 20.2757 14.8069 19.8302 14.8014 19.3605L13.8015 19.3722ZM13.592 19.8729L12.9132 19.1385C12.9196 19.1327 12.9271 19.1267 12.9353 19.1214C12.9436 19.116 12.9511 19.1122 12.9569 19.1097C12.969 19.1045 12.9683 19.1073 12.9471 19.1096L13.0558 20.1037L13.1644 21.0978C13.5637 21.0541 13.9516 20.9022 14.2708 20.6072L13.592 19.8729ZM13.0558 20.1037H12.0558V20.1321H13.0558H14.0558V20.1037H13.0558ZM13.0558 20.1321L12.9475 21.1262C13.0229 21.1344 13.0575 21.1469 13.0641 21.1496C13.0682 21.1513 13.0434 21.1416 13.0109 21.1091L13.718 20.402L14.4251 19.6949C14.0613 19.331 13.5927 19.1846 13.164 19.138L13.0558 20.1321ZM13.718 20.402L13.0138 21.1119C12.9945 21.0928 12.9702 21.0602 12.9533 21.0173C12.9369 20.9758 12.9365 20.9476 12.9365 20.9453L13.9364 20.956L14.9364 20.9666C14.9414 20.4942 14.7762 20.0431 14.4223 19.692L13.718 20.402ZM13.9364 20.956L12.9365 20.9615C12.9365 20.9648 12.9362 20.9544 12.9422 20.9367C12.9483 20.9188 12.9559 20.9077 12.9578 20.9053L13.7447 21.5224L14.5316 22.1394C14.8027 21.7937 14.9388 21.3845 14.9364 20.9504L13.9364 20.956ZM13.7447 21.5224L12.955 20.9088C12.9528 20.9117 12.928 20.9444 12.8314 20.984L13.2102 21.9094L13.589 22.8349C13.9493 22.6874 14.2809 22.4621 14.5343 22.1359L13.7447 21.5224ZM13.2102 21.9094L12.8297 20.9847C12.7455 21.0193 12.6168 21.0497 12.4237 21.0497V22.0497V23.0497C12.8247 23.0497 13.2204 22.9866 13.5907 22.8342L13.2102 21.9094Z" fill="#0F2B69" fill-opacity="0.7" mask="url(#path-5-outside-1_2012_2)"/>
</svg>
